<?xml version="1.0" encoding="UTF-8"?>
<svg id="Capa_2" data-name="Capa 2" xmlns="http://www.w3.org/2000/svg" viewBox="0 0 646.73 654.77">
  <defs>
    <style>
      .cls-1 {
        fill: #98c221;
      }

      .cls-2 {
        fill: #040c00;
      }
    </style>
  </defs>
  <g id="Capa_1-2" data-name="Capa 1">
    <g>
      <path class="cls-1" d="M376.22,605.33c-.8-.51-1.6-1-2.34-1.58,0-10.35-2.05-20.06-6.15-29.12-5.1-6.26-9.42-12.87-13.08-19.75-8.21-9.25-19.12-17.72-32.65-25.47,6.57-2.04,12.05,1.88,18.59,2.04-11.32-14.69-25.08-23.59-42.13-24.51-1.05-1.09-2.21-2.24-3.35-3.31-1.4-1.34-3.53-2.27-5.52-2.65-12.34-2.27-24.33-5.62-35.74-10.88-27.23-12.71-42.02-33.18-36.59-64.72.98-5.78,2.8-11.51,4.31-17.22,1.68,3.78,2.49,7.4,3.62,10.88,7.3,22.73,20.42,40.6,43.5,48.97,8.86,3.21,18.59,4.26,28.01,6.06,5.87,1.1,11.74,2.17,17.64,3.21,5.65.98,11.3,1.99,17.01,3,3.58.63,7.21,1.29,10.78,1.92,6.64,1.22,13.31,2.48,20.12,3.8,1.03.2,2.06.58,2.88,1.22.02.01.03.03.05.04,2.93,2.2,4.11,6.1,2.44,9.37-8.09,15.91-4.82,34.48-1.83,49.07,0,0,0-.05.03-.13.44-1.83,7.06-27.61,22.74-32.71,6.21-2.02,12.9-3,19.48-4.39,9.05-1.86,17.36-8.39,20.67-15.9.7-1.49,1.14-2.97,1.39-4.48-13.98,2.32-26.04.25-35.32-3.58-5.97-2.5-10.79-5.66-14.27-8.9,1.24.48,2.22.76,3.18,1.14,10.99,4.42,22.33,7.09,34.24,6.29,8.01-.56,15.19-2.93,19.45-10.84.07-.15.14-.33.2-.43-2.37-1.06-4.52-1.94-6.69-2.88-3.76-1.61-7.57-3.19-11.3-4.89-6.93-3.19-13.55-6.85-19.18-12.16-7.88-7.31-9.21-15.92-4.47-25.46,1.2-2.39,2.59-2.78,5.02-2.11,2.52.69,4.63,1.89,6.47,3.44,2.06,1.61,3.81,3.66,5.46,5.87,3.68,4.99,7.01,10.19,10.91,15.04,2.78,3.46,6.24,5.92,10.44,6.9,1.34.38,2.71.52,4.17.57,2.4.1,3.37-.69,4.1-3.02,6.07-19.61.97-37.73-8.3-54.69-7.3-13.22-15.92-25.8-24.65-38.14-12.1-17.11-21.72-35.39-29.05-54.99-3.88-10.46-8.4-20.79-13.58-30.65-5.75-10.89-13.38-19.33-23.17-25.14h-.03c-6.06-3.56-12.87-6.11-20.43-7.54-4.23-.79-8.47-1.3-12.72-1.48h-.19c-9.59-.53-19.23.38-28.76,2.05-2.65.44-4.01.05-5.14-1.42-.42-.54-.83-1.26-1.24-2.12-4.48-9.2-9.49-18.12-14.82-28.21-12.34,8.49-23.69,16.23-35.12,24.07,6.73-12.65,17.03-21.59,29.25-28.63-8.9-11.15-20.01-18.9-31.53-26.1-.69-.41-2.41-.25-3.09.35-4.44,3.48-8.76,7.12-12.95,10.88-2.8,2.58-5.43,5.39-8.05,8.18-2.64,2.7-5.14,5.55-7.73,8.32,3.95-13.25,11.74-23.73,22.63-32.24-.81-.66-1.21-.98-1.62-1.21-11.52-5.35-23.54-9.04-36.02-11.29-1.14-.22-3.09.76-3.75,1.74-4.91,8.11-9.69,16.27-14.41,24.5-1.46,2.65-2.63,5.56-3.96,8.34.13-13.33,4.2-25.31,11.84-36.91-8.49-.32-15.88-.86-23.21-.77-7.13.1-14.2.96-21.31,1.27-3.97.19-5.33,2.17-5.55,5.83-.32,5.51-1.08,11.02-1.42,16.54-.39,5.38-.45,10.79-.6,16.17-5.19-11.52-6.55-23.51-4.92-36.12-14.75,3-28.36,7.8-41.04,14.88-.98.51-1.79,2.52-1.56,3.63.88,4.39,2.11,8.71,3.48,12.96,1.64,5.27,3.57,10.5,5.37,15.73-7.69-7.61-12.8-16.66-15.92-27.22-14.83,9.49-27.09,20.94-36.62,35.94,6.32,6.59,12.48,13.03,18.6,19.47-.25.38-.51.69-.78,1.05-7.31-4.74-14.62-9.41-21.99-14.18-6.97,12.72-12.21,26.22-15.24,41.04,8.02,1.51,15.72,3,23.37,4.42v1.14c-8.07.51-16.11.98-24.72,1.52-5.7,39.22,1.22,75.77,25.91,107.86,11.71,15.28,25.93,26.56,42.39,34.53l.02.03h.08c6.72,3.27,13.77,5.96,21.24,8.17,4.99,1.45,10.13,2.71,15.45,3.75-3.47-3.59-6.61-6.75-9.51-9.8-1.1-1.14-2.18-2.31-3.22-3.48-2.66-2.95-5.18-5.9-7.57-8.97-3.13-3.81-6.02-7.7-8.71-11.71-10.31-15.36-17.63-32.27-20.03-51.55-3.56-28.92,4.22-54.2,25.5-74.42,16.68-15.81,36.92-22.81,59.9-19.1,24.92,3.91,42.3,18.26,56.3,36.97,2.69,3.57,5.2,7.29,7.64,11.19-.86-.25-1.49-.86-2.17-1.34-3.82-2.57-7.58-5.27-11.4-7.92-4.97-3.47-9.96-6.83-15.28-9.66-17.61-9.43-36.03-9.81-54.42-1.92-1.23.51-2.21,1.48-3.37,2.27,6.63,1.04,12.74,1.42,18.49,3.01,11.17,3.01,20.06,9.5,27.98,17.37,2.4,2.38,4.67,4.88,6.96,7.46,2.31,2.62,4.49,5.47,6.66,8.31,2.06,2.65,3.98,5.43,5.95,8.16-1.58-.36-2.62-1.19-3.62-1.97-8.13-6.31-16.44-12.3-25.49-17.03-3.29-1.69-6.7-3.23-10.23-4.56-8.03-2.98-16.24-4.47-24.79-2.15-2.71.76-3.85,2.02-2.87,4.77,1.48,4.03,2.64,8.3,4.67,12.08,1.64,3.13,3.47,6.03,5.42,8.75,8.96,12.35,21.22,21.25,34.75,28.63,5.28,2.88,10.87,5.18,16.49,7.79-22.67,19.38-41.17,41.87-53.8,68.72-6.88,14.62-11.82,29.32-14.63,44.04,6.8.83,8.8,2.15-1.03,6.2h-.04c-2.98,1.23-7.57,5.42-13.04,11.38-1.47.01-2.96-.04-4.45-.06,10.94,28.69,61.56,111.48,282.21,115.47ZM272.64,319.96c3.96.14,7.91.77,11.73,1.58,1.32.28,2.61.63,3.83,1.05,2.44.82,4.76,1.88,6.87,3.12.54.32,1.03.66,1.53,1.01.51.32.99.69,1.5,1.07.33.22.63.48.9.72.55.41,1.07.88,1.59,1.41.42.4.81.78,1.19,1.22.27.25.52.51.78.78h.03c.46.54.98,1.09,1.39,1.64.84,1.09,1.68,2.2,2.4,3.36.23.38.53.78.76,1.2.25.36.51.79.73,1.2,2.43,4.36,4.38,8.94,6.62,13.44-.95.54-1.06.67-1.16.67-7.63-2.78-14.99-1.83-22.2,1.1-.6.25-1.15.53-1.79.79-1.12.54-2.54.57-3.85.64h-.57c-.53,0-1.07-.07-1.58-.1-.38,0-.76-.04-1.11-.14-.43-.03-.85-.12-1.29-.22-.1,0-.22,0-.32-.06-.67-.16-1.26-.34-1.83-.54-.6-.23-1.17-.46-1.7-.75-.1-.04-.12-.06-.19-.13-1.39-.78-2.56-1.76-3.49-2.96-.23-.32-.49-.63-.67-.98-.17-.25-.33-.51-.45-.78-.15-.31-.28-.6-.41-.88-.19-.35-.29-.7-.39-1.08-.12-.25-.15-.5-.21-.72-.19-.67-.3-1.3-.32-2.02-.1-.51-.13-1.01-.13-1.54,0-.75.04-1.48.15-2.27.11-.78.26-1.58.45-2.42,1.89-7.48,1.13-9.26-5.82-12.75-3.66-1.82-7.37-3.43-12.03-5.58,6.98-.03,13.02-.31,19.06-.06Z"/>
      <path class="cls-2" d="M639.4,420.49c-14.88-15.81-31.12-29.84-50.49-39.31-13.14-6.41-23.91-14.46-33.07-25.95-18.07-22.58-40.53-38.42-70.61-40.82-9.97-.82-19.79-3.05-33.58-5.21,23.04-11.92,43.65-9.96,66.6-9.43-24.95-28.38-53.54-40.18-87.7-32.08-16.22,3.88-28.05,2.53-42.64-6.57-16.65-10.44-33.51-16.67-50.56-19.33,2.57,1.04,5.08,2.19,7.47,3.53h.06l.98.58c9.51,5.64,17.34,13.85,23.36,24.38,1.74,2.48,3.38,5.08,4.85,7.88,5.19,9.91,9.7,20.2,13.59,30.65,5.26,14.14,11.79,27.53,19.51,40.31,1.88,2.93,3.74,5.88,5.75,8.72,7.45,10.52,13.84,19.86,19.53,29.26,3.09,4.88,6.1,9.82,8.87,14.88,9.33,16.91,14.39,35.02,8.31,54.64-.69,2.33-10.9,43.11-34.47,55.43-5.94,3.09-13.43,1.86-19.45,4.36-6.74,2.8-11.86,7.11-15.95,12.33-6.74,8.58-9.84,19.47-9.84,30.39v.59c-2.62-3.3-4.61-6.53-6.1-9.37-1.07-3.14-2.12-6.19-3.19-9.33-2.59-13.66-4.88-32.68,4.72-48.91-2.72-1.31-5.57-2.39-8.53-2.96-5.21-1-10.34-1.96-15.44-2.9l-4.65-.83-6.13-1.09-4.71-.83c-4.11-.73-8.2-1.46-12.3-2.17-5.91-1.04-11.8-2.12-17.7-3.22-2.41-.46-4.85-.87-7.28-1.28-7.1-1.2-14.44-2.44-21.36-4.95-21.78-7.9-36.61-24.03-45.26-49.26h-.01c-6.31,29.39,4.65,50.21,33.58,63.71,10.11,4.67,21.48,8.13,34.78,10.58,3.61.69,6.94,2.56,8.64,4.92.65.4,1.19.73,1.84,1.14,16.45,1.53,30.92,10.25,43.02,25.96l5.3,6.88-8.69-.22c-.46-.01-.91-.04-1.35-.08,7.25,5.27,13.48,10.83,18.62,16.61l.33.37.23.43c1.51,2.84,3.17,5.59,4.9,8.28.54.9,1.13,1.83,1.79,2.8,4.97,7.28,7.47,11.84,8.73,14.66.46,1.36.9,2.72,1.29,4.1,4.13,4.29,8.62,8.45,13.59,12.4,21.99,17.46,22.28,17.33,41.47-1.33,8.93-8.71,13.28-9.04,16.59,4.95,4.84,20,15.76,37.07,31.26,51.09,6.92,6.26,12.58,6.44,20.34.86,28.94-20.78,41.86-54.62,33.95-91.15-28.75,5.86-30.07,4.44-34.01-25.37-3.28-25.23,7.45-44.97,21.84-64,7.27-9.62,11.59-6.24,16.79,1.8,8.53,13.14,14.84,27.28,18.3,42.39,1.88,8.25,4.75,9.64,11.99,6.23,25.13-11.85,46.12-27.95,54.48-55.67,2.46-8.13,6.06-12.83,13.6-16.66,13.4-6.77,15.57-15.69,4.22-27.84ZM476.87,359.65c18.35-2.5,34.1-1.53,49.64-3.92,10.31-1.54,11.61,10.64,14.8,19.74-23.32,2.78-44.07.98-64.44-15.82Z"/>
      <path class="cls-2" d="M496.05,141.01c-2.99,2.61-6.01,5.16-9.27,7.96-10.23-15.17-24.27-21.86-41.17-23.31-8.74-.75-17.72-.85-26.25-2.79-6.06-1.36-11.6-5.28-19.31-9.02,13.72-9.82,23.81-2.31,35.61.49-7.62-14.96-17.4-23.73-33.24-24.78-54.21-3.69-88.88-33.06-108.15-82.65-.9-2.36-2.22-4.6-3.36-6.91-5.02,42.24,14.32,73.38,44.98,100.84-13.75,4.11-25.37,7.81-37.18,11.02-39.48,10.71-77.26,25.42-112.88,45.19,57.23,1.27,91.52,48.65,98.2,65.8,16.21-6.7,21.8-13.87,38.7-19.02,26.21-8,60.84,8.88,72.65,34.53-5.28.48-10.38.93-15.45,1.36-.15,1.1-.12.91-.27,2.01,7.56,2.84,15.08,5.66,22.74,8.56-2.84,1.28-5.33,2.37-8.71,3.93,22.62,7.35,46.27,2.34,56.35-14.45-21.84-1.62-27.82-6.58-33.04-28.69-3.67-15.78-13.18-27.43-25.09-37.56-2.98-2.55-6.05-4.95-9.09-7.39-2.69-2.07-5.4-4.18-8.1-6.31,4.75-.03,9.42.28,13.96.82,7.68.93,15.14,2.39,22.63,3.74,14.89,2.69,29.8,6.5,44.79,7.24,17,.82,34.67-2.42,41.45,19.4,14.89-13.06,13.78-35.02-1.48-50.01Z"/>
    </g>
  </g>
</svg>
